:SAMPLES-PER-SECOND 30
:FULLY-SPECIFIED
:DEGREES
245
root  -7.17371 37.7753 -14.3217 81.3963 -85.4744 -86.2764
RightUpLeg  -16.7701 -4.84618 -1.07415
RightLeg  28.9806 3.78223 2.02341
RightFoot  -8.03086 -0.153752 3.44773
RightToes  2.21189e-009 0 -3.6325e-017
Spine  9.89527 -1.71062 14.2656
Spine1  8.32705 0.531819 -1.41285
HEad  -14.6521 6.65496 -7.384
LeftShoulder1  -0.443695 4.73166 -29.9862
LeftArm  4.31936 6.81455 -47.4118
LeftForeArm  21.6239 -20.7637 -4.32165
LeftHand  -0.200616 -0.164503 4.25536
RightShoulder  -0.63879 -5.35805 27.7431
RightArm  10.065 -6.52708 44.657
RightForeArm  10.3441 8.09438 5.78985
RightHand  -0.526227 5.62562 -5.85485
LeftUpLeg  -1.07675 -2.46238 6.90729
LeftLeg  57.7509 2.70138 5.01228
LeftFoot  7.36114 0.215205 -1.33863
LeftToes  -3.01956e-010 3.07132e-011 1.04116e-011
246
root  -8.3486 38.1025 -14.581 63.4819 -85.7902 -68.7649
RightUpLeg  -13.3665 -6.0741 -1.69403
RightLeg  27.7412 3.87567 1.96887
RightFoot  -9.58972 -0.114147 3.19018
RightToes  2.21189e-009 0 -3.6325e-017
Spine  10.6459 -1.65717 14.3643
Spine1  7.4421 0.803165 -1.94292
HEad  -13.4262 5.94113 -7.09662
LeftShoulder1  -0.419248 4.66085 -30.0821
LeftArm  4.89322 7.82909 -46.9777
LeftForeArm  21.1048 -21.3683 -4.17567
LeftHand  -0.184528 0.0644395 4.03439
RightShoulder  -0.687408 -5.49782 27.7982
RightArm  11.6443 -5.12597 43.871
RightForeArm  10.4757 9.51454 6.15287
RightHand  -0.51622 5.57329 -5.75812
LeftUpLeg  -5.6472 -1.08949 6.11044
LeftLeg  62.0703 0.84331 2.35418
LeftFoot  4.13355 0.143554 -1.27042
LeftToes  -3.01956e-010 3.07132e-011 1.04116e-011
247
root  -9.52021 38.3925 -14.7851 43.2548 -85.4654 -48.5052
RightUpLeg  -10.2917 -7.43291 -2.27555
RightLeg  26.2086 3.9502 1.87231
RightFoot  -10.8811 -0.0851672 3.02698
RightToes  2.21189e-009 0 -3.6325e-017
Spine  10.3774 -1.6356 14.9198
Spine1  7.25024 1.03847 -2.86983
HEad  -11.8784 4.8271 -6.92619
LeftShoulder1  -0.38793 4.58277 -29.8079
LeftArm  4.7479 8.59086 -46.7252
LeftForeArm  21.4167 -21.7659 -4.05651
LeftHand  -0.123215 0.344319 2.8372
RightShoulder  -0.678366 -5.49316 27.4097
RightArm  13.0781 -3.907 43.8427
RightForeArm  7.94007 11.12 6.30016
RightHand  -0.668436 6.11968 -7.06574
LeftUpLeg  -10.3255 0.388052 5.11688
LeftLeg  63.3063 -0.26909 0.0796517
LeftFoot  3.01184 0.314683 -2.62979
LeftToes  -3.01956e-010 3.07132e-011 1.04116e-011
248
root  -10.7585 38.6785 -14.9816 28.7624 -85.0367 -34.1197
RightUpLeg  -6.74529 -8.39889 -3.03398
RightLeg  24.1352 4.03082 1.72339
RightFoot  -12.2002 -0.0579023 3.34944
RightToes  2.21189e-009 0 -3.6325e-017
Spine  10.1943 -1.28304 15.0414
Spine1  6.91357 1.4952 -3.60899
HEad  -11.0612 3.48561 -6.93315
LeftShoulder1  -0.379795 4.56933 -29.4817
LeftArm  4.51686 9.39536 -46.5275
LeftForeArm  21.6111 -21.6777 -4.07285
LeftHand  -0.116447 1.06273 3.00097
RightShoulder  -0.643501 -5.42925 26.7233
RightArm  13.8037 -3.71754 43.9812
RightForeArm  5.84617 13.6861 5.76721
RightHand  -0.674355 6.1834 -7.08118
LeftUpLeg  -13.8829 2.44144 3.72484
LeftLeg  61.2184 -0.847202 -1.10284
LeftFoot  1.77063 0.233287 -2.12288
LeftToes  -3.01956e-010 3.07132e-011 1.04116e-011
249
root  -11.9527 38.8973 -15.1421 15.384 -83.8483 -20.503
RightUpLeg  -3.53074 -10.2665 -3.93399
RightLeg  21.9991 4.4024 1.80194
RightFoot  -13.2521 -0.0340818 3.3457
RightToes  2.21189e-009 0 -3.6325e-017
Spine  10.1737 -1.00755 15.123
Spine1  5.77298 1.78466 -4.45647
HEad  -10.5097 2.70278 -6.92553
LeftShoulder1  -0.349263 4.48625 -29.3785
LeftArm  3.58831 9.70754 -46.0203
LeftForeArm  21.8521 -20.7303 -4.29209
LeftHand  -0.0965957 1.57767 2.73316
RightShoulder  -0.655483 -5.47021 26.6172
RightArm  15.6149 -3.51234 43.1914
RightForeArm  2.20708 16.5506 5.34804
RightHand  -0.753243 6.30407 -7.79038
LeftUpLeg  -17.3018 4.02887 2.09696
LeftLeg  56.5896 -0.666623 -0.589865
LeftFoot  0.370662 0.189066 -1.86746
LeftToes  -3.01956e-010 3.07132e-011 1.04116e-011
250
root  -13.1976 39.1044 -15.2732 6.24448 -83.0269 -11.4136
RightUpLeg  0.320482 -11.1021 -5.07288
RightLeg  19.2115 4.45444 1.82936
RightFoot  -14.0388 -0.0182394 3.27019
RightToes  2.21189e-009 0 -3.6325e-017
Spine  9.67431 -0.452055 14.0961
Spine1  6.03606 2.01418 -4.32681
HEad  -9.82035 1.18795 -7.36725
LeftShoulder1  -0.38117 4.55674 -30.0413
LeftArm  3.12666 9.94545 -44.9347
LeftForeArm  20.6993 -20.2679 -4.471
LeftHand  -0.110515 0.755046 2.685
RightShoulder  -0.559471 -5.22107 25.8254
RightArm  16.4698 -2.73956 42.8924
RightForeArm  0.579908 18.8617 4.9892
RightHand  -0.805463 6.71079 -8.04951
LeftUpLeg  -18.9905 6.24703 0.352249
LeftLeg  48.9403 -0.416758 -0.0885267
LeftFoot  -0.703953 0.167713 -1.75685
LeftToes  -3.01956e-010 3.07132e-011 1.04116e-011
251
root  -14.4315 39.2135 -15.3608 0.545486 -82.2121 -5.65747
RightUpLeg  3.79483 -11.3968 -5.91358
RightLeg  16.7615 3.96289 1.72068
RightFoot  -14.8728 -0.00112559 3.22971
RightToes  2.21189e-009 0 -3.6325e-017
Spine  9.4964 -0.0633946 13.8493
Spine1  5.87188 2.47796 -5.55553
HEad  -9.55208 -0.238736 -6.69306
LeftShoulder1  -0.312713 4.38213 -29.4639
LeftArm  1.24982 10.5167 -44.7566
LeftForeArm  21.5546 -19.4238 -4.64482
LeftHand  -0.0933596 1.11603 2.38793
RightShoulder  -0.564752 -5.23706 25.8195
RightArm  16.9144 -1.74983 42.4675
RightForeArm  0.972535 20.7634 4.78651
RightHand  -0.74482 6.80916 -7.41572
LeftUpLeg  -19.8872 8.38608 -1.35812
LeftLeg  39.2501 -0.251488 0.153805
LeftFoot  -1.55534 0.155184 -1.70921
LeftToes  -3.01956e-010 3.07132e-011 1.04116e-011
